<?xml version="1.0" standalone="no"?>
<!DOCTYPE svg PUBLIC "-//W3C//DTD SVG 20010904//EN"
 "http://www.w3.org/TR/2001/REC-SVG-20010904/DTD/svg10.dtd">
<svg version="1.0" xmlns="http://www.w3.org/2000/svg"
 width="260.000000pt" height="260.000000pt" viewBox="0 0 260.000000 260.000000"
 preserveAspectRatio="xMidYMid meet">
<metadata>
Created by potrace 1.11, written by Peter Selinger 2001-2013
</metadata>
<g transform="translate(0.000000,260.000000) scale(0.100000,-0.100000)"
fill="#000000" stroke="none">
<path d="M442 2514 c-137 -28 -269 -133 -327 -259 -45 -97 -45 -94 -45 -939 0
-511 4 -822 10 -856 27 -144 129 -273 262 -334 40 -19 93 -37 117 -41 25 -4
403 -7 841 -7 872 0 861 -1 974 60 67 36 151 123 187 194 56 110 55 104 54
988 -2 791 -3 817 -22 877 -27 81 -73 152 -133 206 -53 48 -153 100 -215 113
-68 13 -1635 12 -1703 -2z m1067 -353 c321 -84 575 -338 651 -651 18 -72 20
-88 24 -196 13 -345 -183 -670 -499 -826 -57 -29 -164 -65 -215 -73 -19 -3
-42 -8 -50 -10 -26 -8 -182 -8 -240 -1 -367 49 -659 309 -755 671 -24 93 -35
261 -20 338 3 15 7 38 9 52 38 216 189 443 381 570 208 139 481 187 714 126z"/>
<path d="M1132 2055 c-159 -35 -285 -105 -396 -219 -137 -142 -214 -322 -220
-514 -8 -280 116 -523 346 -678 302 -203 715 -164 973 90 259 256 311 650 127
956 -109 180 -283 310 -482 359 -92 23 -259 26 -348 6z m324 -80 c87 -19 215
-84 287 -145 160 -135 251 -331 250 -540 -1 -195 -72 -363 -212 -500 -278
-271 -723 -264 -993 16 -137 143 -201 311 -194 514 13 440 423 751 862 655z"/>
<path d="M1205 1874 c-95 -23 -143 -40 -200 -71 -336 -187 -399 -650 -125
-923 136 -137 317 -196 513 -166 136 20 281 109 371 229 170 227 148 554 -53
757 -114 115 -233 169 -391 175 -52 2 -104 2 -115 -1z m160 -78 c203 -20 391
-200 430 -411 16 -89 1 -212 -39 -306 -36 -86 -143 -197 -231 -242 -101 -50
-236 -67 -344 -42 -233 55 -403 271 -396 505 3 95 13 137 52 218 65 133 210
246 348 271 77 14 108 17 120 14 6 -1 33 -4 60 -7z"/>
<path d="M1205 1676 c-117 -28 -211 -104 -266 -213 -32 -64 -34 -74 -34 -168
0 -92 3 -106 32 -168 39 -82 110 -155 190 -193 52 -26 69 -28 163 -29 99 0
109 2 170 32 214 106 289 351 170 558 -82 143 -263 220 -425 181z m216 -93
c61 -27 134 -100 162 -160 33 -73 31 -200 -5 -268 -105 -198 -353 -240 -508
-85 -156 156 -108 415 93 511 50 23 69 27 135 25 53 -1 91 -8 123 -23z"/>
<path d="M1265 1490 c-199 -29 -235 -297 -51 -381 50 -23 90 -24 147 -4 181
64 172 326 -13 379 -23 7 -61 9 -83 6z"/>
</g>
</svg>
